<?xml version="1.0" encoding="utf-8"?>
<!-- Generator: Adobe Illustrator 17.0.0, SVG Export Plug-In . SVG Version: 6.00 Build 0)  -->
<!DOCTYPE svg PUBLIC "-//W3C//DTD SVG 1.1//EN" "http://www.w3.org/Graphics/SVG/1.1/DTD/svg11.dtd">
<svg version="1.1" id="图层_1" xmlns="http://www.w3.org/2000/svg" xmlns:xlink="http://www.w3.org/1999/xlink" x="0px" y="0px"
	 width="81.03px" height="82.34px" viewBox="0 0 81.03 82.34" enable-background="new 0 0 81.03 82.34" xml:space="preserve">
<path fill-rule="evenodd" clip-rule="evenodd" fill="#FFFFFF" d="M45.51,64.29c0,3.22-3.96,2.58-5.07,2.58
	c-1.59,0-4.92,0.48-4.92-2.58c0-3.22,3.81-2.41,4.92-2.41C42.02,61.88,45.51,61.23,45.51,64.29z M27.75,64.29
	c0,3.22-3.96,2.58-5.07,2.58c-1.59,0-4.92,0.48-4.92-2.58c0-3.22,3.81-2.41,4.92-2.41C24.26,61.88,27.75,61.23,27.75,64.29z
	 M63.27,51.4c0,3.22-3.96,2.58-5.07,2.58c-1.59,0-4.92,0.48-4.92-2.58c0-3.22,3.81-2.42,4.92-2.42
	C59.78,48.98,63.27,48.34,63.27,51.4z M45.51,51.4c0,3.22-3.96,2.58-5.07,2.58c-1.59,0-4.92,0.48-4.92-2.58
	c0-3.22,3.81-2.42,4.92-2.42C42.02,48.98,45.51,48.34,45.51,51.4z M27.75,51.4c0,3.22-3.96,2.58-5.07,2.58
	c-1.59,0-4.92,0.48-4.92-2.58c0-3.22,3.81-2.42,4.92-2.42C24.26,48.98,27.75,48.34,27.75,51.4z M63.27,38.51
	c0,3.22-3.96,2.58-5.07,2.58c-1.59,0-4.92,0.48-4.92-2.58c0-3.22,3.81-2.42,4.92-2.42C59.78,36.09,63.27,35.45,63.27,38.51z
	 M45.51,38.51c0,3.22-3.96,2.58-5.07,2.58c-1.59,0-4.92,0.48-4.92-2.58c0-3.22,3.81-2.42,4.92-2.42
	C42.02,36.09,45.51,35.45,45.51,38.51z M27.75,38.51c0,3.22-3.96,2.58-5.07,2.58c-1.59,0-4.92,0.48-4.92-2.58
	c0-3.22,3.81-2.42,4.92-2.42C24.26,36.09,27.75,35.45,27.75,38.51z M75.96,25.78v49.47c-0.32,0.81-1.43,1.93-1.91,1.93H6.82
	c-0.95-0.32-1.74-1.45-1.74-2.09V25.78H75.96z M17.61,10.31c-0.16,1.61-0.32,5.16,2.53,5.16c2.86,0,2.7-3.55,2.7-5.16H58.2
	c-0.16,1.61-0.32,5.16,2.53,5.16c2.86,0,2.7-3.55,2.7-5.16h10.62c0.8,0.32,1.91,1.29,1.91,1.78v8.37H5.08v-8.37
	c0.16-0.81,1.27-1.94,2.06-1.78H17.61z M22.68,2.09v3.07h35.67V2.09c0-1.28,1.43-2.09,2.38-2.09c1.11,0,2.54,0.97,2.54,2.09v3.07
	h13.16c2.22,0,4.6,2.74,4.6,4.51v68c-0.16,2.25-2.7,4.67-4.6,4.67H4.44C2.22,82.18,0,79.44,0,77.83V9.67c0-2.26,2.7-4.51,4.44-4.51
	h13.32V2.09c0-1.28,1.43-2.09,2.38-2.09C21.25,0,22.68,0.97,22.68,2.09z"/>
</svg>
