<?xml version="1.0" encoding="utf-8"?>
<!-- Generator: Adobe Illustrator 17.0.0, SVG Export Plug-In . SVG Version: 6.00 Build 0)  -->
<!DOCTYPE svg PUBLIC "-//W3C//DTD SVG 1.1//EN" "http://www.w3.org/Graphics/SVG/1.1/DTD/svg11.dtd">
<svg version="1.1" id="图层_1" xmlns="http://www.w3.org/2000/svg" xmlns:xlink="http://www.w3.org/1999/xlink" x="0px" y="0px"
	 width="86.61px" height="75.36px" viewBox="0 0 86.61 75.36" enable-background="new 0 0 86.61 75.36" xml:space="preserve">
<path fill-rule="evenodd" clip-rule="evenodd" fill="#FFFFFF" d="M54.07,42.82c0,1.86-1.53,2.87-2.72,2.87
	c-1.01,0-2.54-1.01-2.54-2.19c0-0.85-0.17-1.86-0.51-2.53c-0.33-1.52-2.71-3.37-3.89-3.37c-0.68,0-2.04-0.17-2.72-0.68
	c-0.67-0.34-1.01-1.68-1.01-2.02c0-1.69,1.18-2.53,2.71-2.53C49.32,32.37,54.07,37.26,54.07,42.82z M59.49,42.99
	c0,9.27-7.29,16.19-16.27,16.19c-5.59,0-11.87-2.7-15.09-10.12c-0.5-1.35-1.01-3.71-1.01-4.05v-3.87
	c1.86-9.61,8.81-14.17,16.1-14.17C52.54,26.97,59.49,34.06,59.49,42.99z M75.76,24.11c0,1.68-1.52,2.7-2.71,2.7
	c-1.69,0-2.54-1.52-2.54-2.7c0-1.69,1.35-2.53,2.54-2.53C74.75,21.58,75.76,22.93,75.76,24.11z M64.91,42.99
	c0,11.97-10,21.58-21.69,21.58c-12.04,0-21.53-9.95-21.53-21.58c0-11.97,9.83-21.41,21.53-21.41
	C55.25,21.58,64.91,31.36,64.91,42.99z M52.54,5.39c4.07,2.87,9.49,10.79,13.22,10.79h13.39c0.85,0.34,2.04,1.35,2.04,1.86v49.9
	c-0.34,0.85-1.53,2.03-2.04,2.03H7.29c-0.68-0.34-1.87-1.52-1.87-1.86V18.04c0.34-0.67,1.36-1.86,1.87-1.86h13.39
	c4.23-0.67,8.98-7.58,13.22-10.79H52.54z M53.05,0C57.97,0.34,63.9,10.79,67.8,10.79h13.89c2.38,0,4.92,2.87,4.92,4.72v54.96
	c-0.17,2.36-3.05,4.89-4.92,4.89H4.74C2.37,75.19,0,72.33,0,70.64V15.51c0-2.36,2.88-4.72,4.74-4.72h13.9
	C23.39,9.95,28.47,0.51,33.39,0H53.05z"/>
</svg>
