<?xml version="1.0" encoding="utf-8"?>
<!-- Generator: Adobe Illustrator 17.0.0, SVG Export Plug-In . SVG Version: 6.00 Build 0)  -->
<!DOCTYPE svg PUBLIC "-//W3C//DTD SVG 1.1//EN" "http://www.w3.org/Graphics/SVG/1.1/DTD/svg11.dtd">
<svg version="1.1" id="图层_1" xmlns="http://www.w3.org/2000/svg" xmlns:xlink="http://www.w3.org/1999/xlink" x="0px" y="0px"
	 width="86.934px" height="85.723px" viewBox="0 0 86.934 85.723" enable-background="new 0 0 86.934 85.723" xml:space="preserve">
<path fill-rule="evenodd" clip-rule="evenodd" fill="#FFFFFF" d="M51.564,40.293c1.7,0,2.72,1.5,2.72,2.51
	c0,1.17-1.19,2.68-2.38,2.68h-27.9c-1.36-0.16-2.21-1.67-2.21-2.68c0-1.17,1.19-2.68,2.56-2.51H51.564z M62.444,29.563
	c1.7,0,2.72,1.5,2.72,2.51c0,1.17-1.19,2.68-2.38,2.68h-38.78c-1.36-0.16-2.21-1.67-2.21-2.68c0-1.17,1.19-2.68,2.56-2.51H62.444z
	 M40.674,18.833c1.7,0,2.72,1.5,2.72,2.51c0,1.17-1.19,2.68-2.38,2.68h-17.01c-1.36-0.16-2.21-1.67-2.21-2.68
	c0-1.17,1.19-2.68,2.56-2.51H40.674z M79.114,5.413c0.51,0,2.38,1.18,2.38,1.85v49.62c-0.34,0.84-1.53,2.02-2.04,2.02h-37.93
	c-0.85,0.16-1.87,0.16-2.55,0.83c-5.78,4.53-11.56,11.07-17.18,16.6v-15.26c-0.34-0.67-1.36-2.17-2.55-2.17h-11.9
	c-0.68-0.34-1.87-1.51-1.87-1.85V7.263c0.17-0.84,1.36-2.01,2.21-1.85H79.114z M81.664,0.053c2.38-0.34,5.27,2.51,5.27,4.69v54.66
	c-0.16,2.35-3.06,4.86-4.93,4.86h-40.14c-6.97,6.87-14.11,13.92-21.26,20.79c-0.51,0.33-1.19,0.67-1.7,0.67
	c-1.19,0-2.55-1.17-2.55-2.18v-19.28H4.794c-2.39-0.17-4.77-3.02-4.77-4.69V4.743c-0.34-2.01,3.07-5.19,5.11-4.69H81.664z"/>
</svg>
